<?xml version="1.0" standalone="no"?>
<!DOCTYPE svg PUBLIC "-//W3C//DTD SVG 20010904//EN"
 "http://www.w3.org/TR/2001/REC-SVG-20010904/DTD/svg10.dtd">
<svg version="1.0" xmlns="http://www.w3.org/2000/svg"
 width="477.000000pt" height="477.000000pt" viewBox="0 0 477.000000 477.000000"
 preserveAspectRatio="xMidYMid meet">
<metadata>
Created by potrace 1.14, written by Peter Selinger 2001-2017
</metadata>
<g transform="translate(0.000000,477.000000) scale(0.100000,-0.100000)"
fill="#000000" stroke="none">
<path d="M740 4416 c-45 -22 -115 -100 -105 -116 3 -5 -16 -24 -42 -43 -49
-36 -74 -62 -129 -132 -33 -42 -109 -185 -98 -185 4 0 2 -6 -4 -12 -16 -21
-24 -105 -12 -127 6 -12 26 -31 46 -45 29 -20 33 -26 22 -37 -13 -14 -53 -97
-53 -110 0 -4 -3 -11 -7 -15 -5 -4 -8 -17 -8 -29 0 -12 -3 -25 -7 -29 -4 -3
-8 -14 -9 -24 -12 -84 -18 -104 -35 -126 -57 -73 -176 -80 -223 -15 l-17 24
-20 -24 c-24 -29 -24 -54 1 -109 32 -71 72 -99 133 -93 11 2 17 -5 17 -19 0
-34 36 -77 72 -85 49 -11 52 -12 63 -6 6 3 20 7 33 9 25 3 92 42 92 53 0 8
-38 19 -67 19 -13 0 -28 12 -42 36 -12 19 -21 37 -21 39 0 3 25 23 55 46 61
46 98 110 99 171 1 21 4 38 9 38 4 0 7 13 7 30 0 16 8 47 17 68 l16 39 41 -27
c49 -32 112 -56 186 -70 155 -31 268 -40 580 -46 257 -6 328 -4 450 11 196 24
321 26 387 7 58 -16 120 -69 130 -111 3 -15 8 -30 12 -36 12 -21 36 -193 28
-201 -3 -3 -47 -1 -97 6 -103 13 -365 17 -450 5 -60 -7 -210 -41 -250 -55 -22
-9 -77 -30 -90 -36 -3 -1 -15 -5 -27 -9 -13 -4 -23 -10 -23 -14 0 -3 -13 -12
-28 -19 -36 -16 -146 -123 -177 -173 -17 -26 -38 -42 -72 -55 -26 -10 -50 -21
-53 -24 -3 -3 -30 -19 -60 -34 -59 -30 -139 -87 -186 -133 -85 -81 -150 -217
-154 -320 0 -6 -23 -38 -51 -70 -90 -103 -150 -233 -164 -355 -5 -47 -15 -69
-49 -115 -90 -121 -128 -226 -131 -368 -1 -55 1 -109 5 -120 4 -11 15 -45 25
-75 18 -55 52 -131 64 -140 3 -3 18 -23 33 -45 44 -64 117 -138 198 -199 41
-31 80 -60 85 -64 42 -34 206 -118 315 -162 30 -12 70 -28 88 -36 18 -8 38
-14 45 -14 7 0 25 -7 41 -15 16 -9 31 -13 33 -11 3 2 24 -2 46 -11 23 -8 49
-16 57 -18 33 -8 158 -34 185 -39 118 -22 146 -27 190 -31 28 -2 100 -9 160
-14 280 -27 691 -4 955 54 128 28 122 27 230 60 244 74 483 193 635 315 63 51
176 175 208 229 29 49 64 129 81 184 3 10 10 15 16 12 5 -3 10 -3 10 2 0 4 19
14 43 21 63 20 253 117 288 148 8 8 19 14 22 14 13 0 52 35 142 125 61 61 108
120 148 185 31 53 57 100 57 105 0 6 6 21 13 36 21 39 46 117 40 123 -3 3 -1
11 5 18 6 7 14 57 18 110 7 95 6 97 -20 123 -22 22 -29 24 -48 14 -13 -7 -99
-87 -193 -178 -168 -165 -227 -213 -295 -244 -67 -29 -151 -57 -175 -57 -13 0
-26 -4 -29 -8 -2 -4 -31 -9 -63 -10 l-58 -2 -2 76 c-5 136 -64 274 -167 384
-35 37 -45 57 -55 107 -6 34 -24 86 -38 114 -58 111 -215 246 -376 325 -59 28
-59 28 -51 64 4 19 8 112 10 205 2 134 -1 189 -16 260 -20 102 -54 229 -71
272 -31 76 -84 182 -110 221 -16 24 -29 45 -29 48 0 14 -167 184 -182 184 -4
0 -24 12 -45 26 -30 21 -149 82 -173 89 -8 3 -41 15 -94 36 -27 10 -56 19 -66
19 -9 0 -20 3 -24 7 -3 4 -12 8 -19 9 -7 2 -43 10 -82 19 -38 9 -95 19 -125
22 -30 2 -62 7 -70 10 -8 4 -94 8 -190 9 -138 2 -183 6 -214 19 -22 9 -47 18
-55 20 -9 2 -45 12 -81 23 -74 23 -116 34 -145 38 -11 1 -33 5 -50 8 -59 12
-181 26 -256 29 -56 3 -87 10 -114 25 -53 32 -182 31 -245 -2z m411 -306 c6 0
9 -15 7 -32 -3 -29 -7 -33 -35 -36 -32 -3 -33 -2 -33 32 0 34 13 48 38 40 8
-2 18 -4 23 -4z"/>
</g>
</svg>
